<?xml version="1.0" encoding="iso-8859-1"?>
<!-- Generator: Adobe Illustrator 17.1.0, SVG Export Plug-In . SVG Version: 6.00 Build 0)  -->
<!DOCTYPE svg PUBLIC "-//W3C//DTD SVG 1.0//EN" "http://www.w3.org/TR/2001/REC-SVG-20010904/DTD/svg10.dtd">
<svg version="1.0" xmlns="http://www.w3.org/2000/svg" xmlns:xlink="http://www.w3.org/1999/xlink" x="0px" y="0px" width="110px"
	 height="110px" viewBox="0 0 110 110" style="enable-background:new 0 0 110 110;" xml:space="preserve">
<g id="Artboard">
</g>
<g id="Multicolor">
	<circle style="fill:#E04F5F;" cx="55" cy="55" r="55"/>
	<g>
		<path style="fill:#FACB1B;" d="M34.48,23c-1.14,0-2.225,0.486-2.984,1.336c-0.759,0.85-1.119,1.983-0.991,3.116l4.091,36
			c0.23,2.021,1.94,3.548,3.974,3.548h32.858c2.034,0,3.745-1.527,3.974-3.548l4.091-36c0.129-1.132-0.232-2.266-0.991-3.116
			S76.659,23,75.52,23H34.48z"/>
		<path style="fill:#FBE158;" d="M55,23H34.48c-1.14,0-2.225,0.486-2.984,1.336c-0.759,0.85-1.12,1.983-0.991,3.116l4.091,36
			c0.23,2.021,1.94,3.548,3.975,3.548H55V23z"/>
		<path style="fill:#FBE158;" d="M85.719,62.734c-0.699-1.502-2.484-2.153-3.986-1.453L69.451,67H71v5.898l13.266-6.177
			C85.768,66.021,86.418,64.236,85.719,62.734z"/>
		<path style="fill:#FBE158;" d="M24.281,62.734c0.699-1.502,2.484-2.153,3.986-1.453L40.548,67H39v5.898L25.734,66.72
			C24.232,66.021,23.582,64.236,24.281,62.734z"/>
		<circle style="fill:#FFFFFF;" cx="49" cy="41" r="6"/>
		<circle style="fill:#059BBF;" cx="50" cy="41" r="2"/>
		<circle style="fill:#FFFFFF;" cx="61" cy="41" r="6"/>
		<circle style="fill:#059BBF;" cx="60" cy="41" r="2"/>
		<circle style="fill:#F3B607;" cx="64" cy="28" r="4"/>
		<circle style="fill:#FACB1B;" cx="39" cy="31" r="4"/>
		<circle style="fill:#FACB1B;" cx="51" cy="29" r="2"/>
		<circle style="fill:#F3B607;" cx="72" cy="33" r="2"/>
		<circle style="fill:#F3B607;" cx="72" cy="44" r="2"/>
		<circle style="fill:#FACB1B;" cx="38" cy="46" r="2"/>
		<circle style="fill:#F3B607;" cx="70" cy="60" r="2"/>
		<circle style="fill:#FACB1B;" cx="41" cy="61" r="3"/>
		<path style="fill:#FA5655;" d="M69,50c-2.781-2.781-2.797,2-14,2s-11.219-4.781-14-2s5,10,14,10S71.781,52.781,69,50z"/>
		<path style="fill:#FFFFFF;" d="M50,51.612V55h4v-3.013C52.446,51.945,51.13,51.806,50,51.612z"/>
		<path style="fill:#FFFFFF;" d="M60,51.612c-1.13,0.194-2.446,0.333-4,0.374V55h4V51.612z"/>
		<rect x="39" y="67" style="fill:#FFFFFF;" width="32" height="12"/>
		<rect x="39" y="75" style="fill:#AF7653;" width="32" height="4"/>
		<polygon style="fill:#FA5655;" points="53,67 53,71 55,75 57,71 57,67 		"/>
		<path style="fill:#3E3E3F;" d="M63,79v6c0,1.105,0.895,2,2,2h10c8.179,0,3-12-8-4v-4H63z"/>
		<path style="fill:#3E3E3F;" d="M47,79v6c0,1.105-0.895,2-2,2H35c-8.179,0-3-12,8-4v-4H47z"/>
		<rect x="43" y="79" style="fill:#FFFFFF;" width="4" height="3"/>
		<rect x="63" y="79" style="fill:#FFFFFF;" width="4" height="3"/>
	</g>
</g>
</svg>
